
<svg width="800" height="707.9" xmlns="http://www.w3.org/2000/svg" xmlns:xlink="http://www.w3.org/1999/xlink"><defs><symbol fill="currentColor" viewBox="0 0 20 20" id="arrow-down">
	<path d="m10.8 17 8.1-8.1L20 10 10 20 0 10l1.1-1.1L9.2 17V0h1.6v17z" />
</symbol><symbol id="arrow-external" viewBox="0 0 17.9 17.9">
<g>
	<path d="M2.5,17.7l-2.2-2.2L11.5,4.2H1.1V1.1h15.6v15.6h-3.1V6.4L2.5,17.7z" />
</g>
</symbol><symbol fill="currentColor" viewBox="0 0 20 20" id="arrow-left">
	<path d="m3 10.8 8.1 8.1L10 20 0 10 10 0l1.1 1.1L3 9.2h17v1.6H3z" />
</symbol><symbol fill="currentColor" viewBox="0 0 20 20" id="arrow-right">
	<path d="M17 9.2 8.9 1.1 10 0l10 10-10 10-1.1-1.1 8.1-8.1H0V9.2h17z" />
</symbol><symbol fill="currentColor" viewBox="0 0 10 10" id="arrow-small-down">
	<path d="M7.7 6.6c-.8.6-1.5 1.1-2.1 1.6V0H4.4v8.2L2.3 6.6 0 4.8v1.4L5 10l5-3.8V4.8L7.7 6.6z" />
</symbol><symbol fill="currentColor" viewBox="0 0 10 10" id="arrow-small-left">
	<path d="M3.4 7.7c-.6-.8-1.1-1.5-1.6-2.1H10V4.4H1.8l1.6-2.1L5.2 0H3.8L0 5l3.8 5h1.4L3.4 7.7z" />
</symbol><symbol fill="currentColor" viewBox="0 0 10 10" id="arrow-small-right">
	<path d="M6.6 2.3c.6.8 1.1 1.4 1.6 2.1H0v1.2h8.2L6.6 7.7 4.8 10h1.4L10 5 6.2 0H4.8l1.8 2.3z" />
</symbol><symbol fill="currentColor" viewBox="0 0 10 10" id="arrow-small-up">
	<path d="M2.3 3.4c.8-.6 1.4-1.1 2.1-1.6V10h1.2V1.8l2.1 1.6L10 5.2V3.8L5 0 0 3.8v1.4l2.3-1.8z" />
</symbol><symbol fill="currentColor" viewBox="0 0 20 20" id="arrow-up">
	<path d="m9.2 3-8.1 8.1L0 10 10 0l10 10-1.1 1.1L10.8 3v17H9.2V3z" />
</symbol><symbol fill="currentColor" viewBox="0 0 12 7" id="chevron-down">
	<path d="M6 5.1 11.1 0l.9.9-6 6-6-6L.9 0 6 5.1z" />
</symbol><symbol fill="currentColor" viewBox="0 0 7 12" id="chevron-left">
	<path d="m1.7 6 5.1 5.1-.8.9-6-6 6-6 .9.9L1.7 6z" />
</symbol><symbol fill="currentColor" viewBox="0 0 7 12" id="chevron-right">
	<path d="M5.1 6 0 .9.9 0l6 6-6 6-.9-.9L5.1 6z" />
</symbol><symbol fill="currentColor" viewBox="0 0 12 7" id="chevron-up">
	<path d="M6 1.7.9 6.9 0 6l6-6 6 6-.9.9L6 1.7z" />
</symbol><symbol fill="currentColor" viewBox="0 0 800 216" id="logo">
	<path d="M0 106.8h17.6v89.6H66v17.1H0V106.8zm95 0h17.6v106.6H95V106.8zm59.2 29.8c0-17.7 14.7-32 33-32s33 14.3 33 32v2.1h-17.6v-2.1c0-8.3-6.8-14.9-15.4-14.9s-15.4 6.6-15.4 14.9v46.9c0 8.3 6.8 14.9 15.4 14.9s15.4-6.6 15.4-14.9v-14.9h-15.4v-17.1h33v32c0 17.7-14.7 32-33 32s-33-14.3-33-32v-46.9zm107.6-29.8h17.6v44.8h30.8v-44.8h17.6v106.6h-17.6v-44.8h-30.8v44.8h-17.6V106.8zm100.5 0h66v17.1h-24.2v89.6h-17.6v-89.6h-24.2v-17.1zm93.3 76.7v-2.1h17.6v2.1c0 8.1 7 14.9 15.4 14.9s15.4-6.8 15.4-14.5c0-9.6-5.3-12.4-18-16.2-19.8-6-29.2-15.6-29.2-32.2s14.3-30.9 31.9-30.9c17.6 0 31.9 13.9 31.9 30.9v3.2H503v-3.2c0-7.7-6.4-13.9-14.3-13.9s-14.3 6.4-14.3 13.9c0 9 5.3 12.4 16.7 15.8 18.3 5.8 30.6 13.6 30.6 32.6 0 17.3-14.7 31.6-33 31.6-18.4 0-33.1-14.2-33.1-32zM561 106.8h17.6v44.8h30.8v-44.8H627v106.6h-17.6v-44.8h-30.8v44.8H561V106.8zm110.7 0h17.6v106.6h-17.6V106.8zm62.3 0h33c18.3 0 33 14.3 33 32v8.5c0 17.7-14.7 32-33 32h-15.4v34.1H734V106.8zm33 55.4c8.6 0 15.4-6.6 15.4-14.9v-8.5c0-8.3-6.8-14.9-15.4-14.9h-15.4v38.4l15.4-.1zM106.2 1.9c-.7-1.9-3.5-1.9-4.1 0l-3.8 11.2c-1.9 5.8-6.6 10.3-12.5 12.2L74.3 29c-2 .6-2 3.4 0 4l11.5 3.7c5.9 1.9 10.6 6.4 12.5 12.2l3.8 11.2c.7 1.9 3.5 1.9 4.1 0l3.8-11.2c1.9-5.8 6.6-10.3 12.5-12.2L134 33c2-.6 2-3.4 0-4l-11.5-3.7c-5.9-1.9-10.6-6.4-12.5-12.2l-3.8-11.2m576.6 0c-.7-1.9-3.5-1.9-4.1 0l-3.8 11.2c-1.9 5.8-6.6 10.3-12.5 12.2L650.9 29c-2 .6-2 3.4 0 4l11.5 3.7c5.9 1.9 10.6 6.4 12.5 12.2l3.8 11.2c.7 1.9 3.5 1.9 4.1 0l3.8-11.2c1.9-5.8 6.6-10.3 12.5-12.2l11.5-3.7c2-.6 2-3.4 0-4l-11.5-3.7c-5.9-1.9-10.6-6.4-12.5-12.2l-3.8-11.2z" />
</symbol><symbol fill="currentColor" viewBox="0 0 26 21" id="mail">
	<path d="M1.9 20.8c-.5 0-1-.2-1.4-.6-.3-.4-.5-.8-.5-1.4V1.9C0 1.4.2.9.6.5S1.4 0 1.9 0H24c.5 0 1 .2 1.4.6s.6.8.6 1.3v16.9c0 .5-.2 1-.6 1.4-.4.4-.8.6-1.4.6H1.9zM13 11 2 3.8v15.1h22.1V3.7L13 11zm0-2 10.9-7.1H2.1L13 9zM1.9 3.7v15.1" />
</symbol><symbol fill="currentColor" viewBox="0 0 10 15" id="pause">
	<path d="M8 15V0h2v15H8zm-8 0V0h2v15H0z" />
</symbol><symbol fill="currentColor" viewBox="0 0 12 14" id="play">
	<path d="M12 7 0 14V0l12 7z" />
</symbol><symbol fill="currentColor" viewBox="0 0 8 9" id="play-round">
	<path d="M7.4 3.6c.8.4.8 1.4 0 1.9L1.6 8.8C.9 9.3 0 8.7 0 8V1.2C0 .3.9-.2 1.6.2l5.8 3.4z" />
</symbol><symbol fill="currentColor" viewBox="0 0 6 12" id="sort"><path d="m3 0 2.598 4.5H.402L3 0ZM3 12 .402 7.5h5.196L3 12Z" /></symbol><symbol fill="currentColor" viewBox="0 0 22 22" id="symbol">
	<path d="M11.6.9c-.2-.7-1.2-.7-1.5 0L8.8 4.8c-.6 2-2.2 3.6-4.3 4.2l-4 1.3c-.7.2-.7 1.2 0 1.4l4 1.3c2 .7 3.7 2.2 4.4 4.3l1.4 3.9c.2.7 1.2.7 1.5 0l1.4-3.9c.7-2 2.3-3.6 4.4-4.3l4-1.3c.7-.2.7-1.2 0-1.4l-4-1.3c-2-.7-3.7-2.2-4.4-4.3L11.6.9z" />
</symbol><symbol viewBox="0 0 27 13" id="two-symbols">
	<path d="m6.6.4.7 2.3c.4 1.2 1.3 2.2 2.5 2.5l2.3.9c.4.1.4.7 0 .8l-2.3.9c-1.1.4-2.1 1.3-2.5 2.5l-.7 2.3c-.1.4-.7.4-.8 0L5 10.3c-.3-1.2-1.3-2.1-2.4-2.5L.3 7c-.4-.1-.4-.7 0-.8l2.3-.8C3.7 4.9 4.7 4 5 2.7L5.7.4c.2-.4.8-.4.9 0zm14.6 0c-.1-.4-.7-.4-.8 0l-.7 2.3c-.4 1.2-1.3 2.2-2.5 2.5l-2.3.9c-.4.1-.4.7 0 .8l2.2.8c1.2.4 2.1 1.3 2.5 2.5l.7 2.3c.1.4.7.4.8 0l.7-2.3c.4-1.2 1.3-2.2 2.5-2.5l2.3-.7c.5-.1.5-.7.1-.8l-2.3-.8c-1.2-.4-2.1-1.3-2.5-2.5L21.2.4z" />
</symbol></defs></svg>